<svg data-v-423bf9ae="" xmlns="http://www.w3.org/2000/svg" viewBox="0 0 488 105" class="iconLeft"><!----><!----><!----><g data-v-423bf9ae="" id="70bcc8b4-ad70-4122-815c-115db75f6b94" fill="black" transform="matrix(5.695953845977783,0,0,5.695953845977783,116.73481750488281,13.09670639038086)"><path d="M3.81 2.73L3.81 2.73L3.81 2.73Q3.10 2.34 2.42 2.67L2.42 2.67L2.42 2.67Q1.80 2.99 1.63 4.48L1.63 4.48L1.63 5.23L3.40 5.23L3.40 6.06L1.62 6.06L1.62 12.10L0.65 12.10L0.65 4.31L0.65 4.31Q0.67 3.40 1.03 2.81L1.03 2.81L1.03 2.81Q1.57 1.67 2.78 1.63L2.78 1.63L2.78 1.63Q3.39 1.49 4.12 1.93L4.12 1.93L4.12 1.93Q4.00 2.21 3.81 2.73ZM5.49 12.09L5.49 1.69L6.46 1.69L6.46 12.09L5.49 12.09ZM12.00 4.22L12.00 4.22L12.00 4.22Q13.73 4.22 14.87 5.47L14.87 5.47L14.87 5.47Q15.92 6.61 15.92 8.18L15.92 8.18L15.92 8.18Q15.93 12.07 15.92 12.13L15.92 12.13L15.92 12.13Q15.26 12.13 14.90 12.13L14.90 12.13L14.90 12.13Q14.90 12.08 14.90 10.42L14.90 10.42L14.90 10.42Q14.10 11.92 12.00 12.09L12.00 12.09L12.00 12.09Q10.27 12.09 9.18 10.92L9.18 10.92L9.18 10.92Q8.09 9.75 8.09 8.18L8.09 8.18L8.09 8.18Q8.09 6.62 9.13 5.48L9.13 5.48L9.13 5.48Q10.27 4.22 12.00 4.22ZM12.00 5.16L12.00 5.16L12.00 5.16Q10.80 5.16 9.94 6.05L9.94 6.05L9.94 6.05Q9.08 6.94 9.08 8.20L9.08 8.20L9.08 8.20Q9.08 9.01 9.52 9.76L9.52 9.76L9.52 9.76Q9.96 10.51 11.01 11.03L11.01 11.03L11.01 11.03Q13.65 11.62 14.77 8.63L14.77 8.63L14.77 8.63Q14.83 7.68 14.56 6.80L14.56 6.80L14.56 6.80Q14.37 6.41 14.03 6.05L14.03 6.05L14.03 6.05Q13.19 5.16 12.00 5.16ZM21.56 5.23L21.56 5.23L20.95 5.87L20.95 5.87Q20.17 5.12 19.43 5.12L19.43 5.12L19.43 5.12Q18.96 5.12 18.63 5.43L18.63 5.43L18.63 5.43Q18.29 5.74 18.29 6.16L18.29 6.16L18.29 6.16Q18.29 6.51 18.57 6.84L18.57 6.84L18.57 6.84Q18.85 7.19 19.73 7.64L19.73 7.64L19.73 7.64Q20.81 8.20 21.19 8.72L21.19 8.72L21.19 8.72Q21.57 9.24 21.57 9.90L21.57 9.90L21.57 9.90Q21.57 10.81 20.92 11.45L20.92 11.45L20.92 11.45Q20.28 12.09 19.30 12.09L19.30 12.09L19.30 12.09Q18.66 12.09 18.06 11.82L18.06 11.82L18.06 11.82Q17.47 11.54 17.09 11.04L17.09 11.04L17.70 10.35L17.70 10.35Q18.44 11.18 19.26 11.18L19.26 11.18L19.26 11.18Q19.84 11.18 20.24 10.81L20.24 10.81L20.24 10.81Q20.65 10.44 20.65 9.94L20.65 9.94L20.65 9.94Q20.65 9.52 20.38 9.20L20.38 9.20L20.38 9.20Q20.12 8.88 19.17 8.39L19.17 8.39L19.17 8.39Q18.16 7.88 17.79 7.36L17.79 7.36L17.79 7.36Q17.42 6.86 17.42 6.20L17.42 6.20L17.42 6.20Q17.42 5.35 18.01 4.78L18.01 4.78L18.01 4.78Q18.59 4.22 19.48 4.22L19.48 4.22L19.48 4.22Q20.51 4.22 21.56 5.23ZM23.26 12.10L23.26 1.70L24.23 1.70L24.23 5.95L24.23 5.95Q24.81 5.17 25.51 4.79L25.51 4.79L25.51 4.79Q26.21 4.41 27.03 4.41L27.03 4.41L27.03 4.41Q27.88 4.41 28.53 4.84L28.53 4.84L28.53 4.84Q29.18 5.26 29.48 5.98L29.48 5.98L29.48 5.98Q29.79 6.70 29.79 8.24L29.79 8.24L29.79 12.10L28.83 12.10L28.83 8.52L28.83 8.52Q28.83 7.23 28.72 6.79L28.72 6.79L28.72 6.79Q28.55 6.04 28.08 5.67L28.08 5.67L28.08 5.67Q27.60 5.30 26.84 5.30L26.84 5.30L26.84 5.30Q25.96 5.30 25.27 5.88L25.27 5.88L25.27 5.88Q24.58 6.45 24.36 7.31L24.36 7.31L24.36 7.31Q24.23 7.85 24.23 9.35L24.23 9.35L24.23 12.10L23.26 12.10ZM34.55 11.03L34.55 11.03L34.55 11.03Q33.84 11.41 33.15 11.09L33.15 11.09L33.15 11.09Q32.32 10.45 32.36 9.28L32.36 9.28L32.36 6.10L34.14 6.10L34.14 5.28L32.35 5.28L32.35 1.65L31.38 1.65L31.38 9.44L31.38 9.44Q31.37 10.26 31.76 10.94L31.76 10.94L31.76 10.94Q32.40 12.03 33.51 12.09L33.51 12.09L33.51 12.09Q34.10 12.11 34.85 11.83L34.85 11.83L34.85 11.83Q34.73 11.54 34.55 11.03ZM36.02 12.07L36.02 8.65L36.02 7.75L36.02 7.75Q36.13 7.08 36.33 6.65L36.33 6.65L36.33 6.65Q36.81 5.48 37.62 4.93L37.62 4.93L37.62 4.93Q38.42 4.38 38.96 4.38L38.96 4.38L38.96 4.38Q39.35 4.38 39.81 4.64L39.81 4.64L39.31 5.45L39.31 5.45Q38.67 5.22 38.05 5.82L38.05 5.82L38.05 5.82Q37.42 6.43 37.18 7.15L37.18 7.15L37.18 7.15Q37.00 7.79 37.00 9.54L37.00 9.54L37.00 12.07L36.02 12.07ZM44.17 4.22L44.17 4.22L44.17 4.22Q45.90 4.22 47.04 5.47L47.04 5.47L47.04 5.47Q48.09 6.61 48.09 8.18L48.09 8.18L48.09 8.18Q48.10 12.07 48.09 12.13L48.09 12.13L48.09 12.13Q47.43 12.13 47.07 12.13L47.07 12.13L47.07 12.13Q47.07 12.08 47.07 10.42L47.07 10.42L47.07 10.42Q46.27 11.92 44.17 12.09L44.17 12.09L44.17 12.09Q42.44 12.09 41.35 10.92L41.35 10.92L41.35 10.92Q40.26 9.75 40.26 8.18L40.26 8.18L40.26 8.18Q40.26 6.62 41.30 5.48L41.30 5.48L41.30 5.48Q42.44 4.22 44.17 4.22ZM44.17 5.16L44.17 5.16L44.17 5.16Q42.97 5.16 42.11 6.05L42.11 6.05L42.11 6.05Q41.25 6.94 41.25 8.20L41.25 8.20L41.25 8.20Q41.25 9.01 41.69 9.76L41.69 9.76L41.69 9.76Q42.13 10.51 43.18 11.03L43.18 11.03L43.18 11.03Q45.82 11.62 46.94 8.63L46.94 8.63L46.94 8.63Q47.00 7.68 46.73 6.80L46.73 6.80L46.73 6.80Q46.54 6.41 46.20 6.05L46.20 6.05L46.20 6.05Q45.36 5.16 44.17 5.16ZM57.24 5.97L57.24 5.97L56.47 6.45L56.47 6.45Q55.48 5.12 53.76 5.12L53.76 5.12L53.76 5.12Q52.39 5.12 51.48 6.00L51.48 6.00L51.48 6.00Q50.58 6.88 50.58 8.15L50.58 8.15L50.58 8.15Q50.58 8.97 51.00 9.70L51.00 9.70L51.00 9.70Q51.41 10.42 52.14 10.82L52.14 10.82L52.14 10.82Q52.86 11.22 53.76 11.22L53.76 11.22L53.76 11.22Q55.43 11.22 56.47 9.91L56.47 9.91L57.24 10.40L57.24 10.40Q56.70 11.21 55.79 11.65L55.79 11.65L55.79 11.65Q54.89 12.09 53.72 12.09L53.72 12.09L53.72 12.09Q51.95 12.09 50.78 10.96L50.78 10.96L50.78 10.96Q49.61 9.84 49.61 8.22L49.61 8.22L49.61 8.22Q49.61 7.13 50.16 6.20L50.16 6.20L50.16 6.20Q50.71 5.26 51.66 4.74L51.66 4.74L51.66 4.74Q52.62 4.22 53.81 4.22L53.81 4.22L53.81 4.22Q54.54 4.22 55.24 4.44L55.24 4.44L55.24 4.44Q55.93 4.67 56.42 5.03L56.42 5.03L56.42 5.03Q56.90 5.40 57.24 5.97ZM59.07 12.09L59.07 1.69L60.04 1.69L60.04 7.61L63.51 4.59L64.93 4.59L61.79 7.44L65.17 12.09L63.80 12.09L60.85 8.05L60.04 8.72L60.04 12.09L59.07 12.09Z"></path></g><!----><g data-v-423bf9ae="" id="a274c340-4b9b-47c2-95ce-3062be81ec28" transform="matrix(1.0769156217575073,0,0,1.0769156217575073,-4.582864284515381,-1.3162130117416382)" stroke="none" fill="black"><path d="M55.161 1.781C29.504-.103 7 20.014 4.893 46.716 2.798 73.4 21.911 96.578 47.593 98.461c25.645 1.867 48.162-18.241 50.248-44.935 2.107-26.703-17.01-49.86-42.68-51.745zm27.135 67.531L47.738 52.847l-.22-32.237 5.852-.033.191 28.603 31.256 14.89-2.521 5.242z"></path></g><!----></svg>